# xmcd
#
# Track frame offsets:
#	150
#	13718
#	25646
#	40676
#	56107
#	67179
#	79853
#	93847
#	109981
#	122733
#	142481
#	159342
#	168715
#	178191
#	195308
#	208166
#	223788
#	237729
#	251128
#	264240
#
# Disc length: 3672 seconds
#
# Revision: 0
# Processed by: cddbd v1.5.1PL2 Copyright (c) Steve Scherf et al.
# Submitted via: audiograbber 1.82.02
#
DISCID=2e0e5614
DTITLE=Various Artist - Country-Hits 100 CD-1
DYEAR=1900
DGENRE=Country
TTITLE0=Glen Campbell - Rhinestone Cowboy
TTITLE1=Don Williams - Tulsa Time
TTITLE2=Dolly Parton - I will always love you
TTITLE3=Boxcar Willie - Forty-nine nights
TTITLE4=Waylon Jennings - Big mamou
TTITLE5=Billie Joe Spears - '57 Chevrolet
TTITLE6=Charley Pride - What's another year
TTITLE7=Freddy Fender - Another shot of ambition
TTITLE8=Carry and Ron - Burning Eyes
TTITLE9=The Mavericks - (I just want to) dance the night away
TTITLE10=David Allan Coe - Desperate man
TTITLE11=Ronnie Hawkins - Hey good lookin'
TTITLE12=Mickey Gilley - Lotta lovin'
TTITLE13=Emmylou Harris and Carl Perkins - Gone, gone, gone
TTITLE14=Stella Parton - Legs
TTITLE15=Bill Davis - If you can't be good
TTITLE16=Juice Newton - Listen to the radio
TTITLE17=Patsy Cline and Willie Nelson - Life's a railway to heaven
TTITLE18=The Bellamy Brothers - Get into reggae cowboy
TTITLE19=James Darren - Help me make it trough the night
EXTD=
EXTT0=
EXTT1=
EXTT2=
EXTT3=
EXTT4=
EXTT5=
EXTT6=
EXTT7=
EXTT8=
EXTT9=
EXTT10=
EXTT11=
EXTT12=
EXTT13=
EXTT14=
EXTT15=
EXTT16=
EXTT17=
EXTT18=
EXTT19=
PLAYORDER=
